<?xml version="1.0" encoding="utf-8"?>
<!-- Generator: Adobe Illustrator 24.0.2, SVG Export Plug-In . SVG Version: 6.00 Build 0)  -->
<svg version="1.1" id="Layer_2_1_" xmlns="http://www.w3.org/2000/svg" xmlns:xlink="http://www.w3.org/1999/xlink" x="0px" y="0px"
	 viewBox="0 0 413.5 241.8" style="enable-background:new 0 0 413.5 241.8;" xml:space="preserve">
<style type="text/css">
	.st0{fill:#7995C6;}
	.st1{fill:#B2E1E9;}
	.st2{fill:#73C5D8;}
	.st3{fill:#3F3E60;}
	.st4{enable-background:new    ;}
</style>
<title>techweek20</title>
<path class="st0" d="M347.7,93.9c0,0.2,0,0.4,0,0.5l-8.5-1.1l-3-0.4l-2.9-0.4l-3.3-0.4c-3.1-7.8-3-16.5,0.4-24.1
	c0.8-1.7,1.7-3.4,2.8-4.9l0.8,1.3l3,4.9c-0.2,0.4-0.4,0.8-0.6,1.2c-2.1,4.7-2.8,9.8-2.2,14.9c1.1-4.1,3-8,5.7-11.4l9.4,15.3
	C348.3,90.7,347.7,92.2,347.7,93.9z"/>
<path class="st0" d="M342.2,71.8c4.4-4.6,9.9-8.1,16-10l-3.1,26c-0.4-0.1-0.8-0.1-1.1-0.1c-0.6,0-1.3,0.1-1.9,0.3L342.2,71.8z"/>
<path class="st0" d="M359.6,49.7l-0.5,4.6c-8.4,1.5-15.6,5.8-20.1,12.3l-3.4-5.6l-0.2-0.3c0.2-0.3,0.5-0.5,0.7-0.8
	C342.3,53.6,350.7,49.9,359.6,49.7z"/>
<path class="st0" d="M362.1,53.9l0.5-4.1c3.2,0.1,6.3,0.6,9.3,1.4l1.4,3.2C369.7,53.7,365.9,53.5,362.1,53.9z"/>
<path class="st0" d="M375.1,73.1c0,1.4,0.5,2.8,1.5,3.9L360,92.3c-0.3-1.2-1-2.4-2-3.2l3.3-28.2c3.1-0.7,6.4-1.1,9.6-1.1
	c1.7,0,3.3,0.1,5,0.3l3.3,7.6C376.7,68.4,375.1,70.6,375.1,73.1z"/>
<path class="st1" d="M345.3,125.9c-0.6,0.2-1.1,0.6-1.5,1l-4.6-1.1l-33.9-8.4c-0.2-1.9-1-3.7-2.5-5l2.3-4.1
	c10.6,5.3,22.1,8.8,33.9,10.1l4,4.6L345.3,125.9z"/>
<path class="st1" d="M302.4,106.9l-1.6,2.9l-0.6,1c-0.8-0.3-1.6-0.4-2.4-0.4c-1.3,0-2.6,0.3-3.8,1l-25.5-23c0.1-0.1,0.1-0.3,0.2-0.4
	l9.4,0.7c6.4,6.4,13.6,12,21.5,16.5C300.5,105.9,301.5,106.4,302.4,106.9z"/>
<path class="st1" d="M309.8,51.5c-2.6,3.7-4.9,7.6-6.7,11.7c-1.4,3.1-2.6,6.2-3.5,9.5c-0.2-6.9,1.1-13.7,3.6-20.1L309.8,51.5z"/>
<path class="st1" d="M319.5,38.3c-1.6,1.9-3,4-4.1,6.2c-1,1.1-2,2.2-3,3.4l-7.8,1.3c2.9-6.2,7.1-11.8,12.3-16.3
	C317.9,34.7,318.7,36.6,319.5,38.3z"/>
<path class="st1" d="M342,25.9L342,25.9c-7.5,1.5-14.5,5-20.2,10.2c-0.8-1.7-1.6-3.4-2.4-5c0.9-0.7,1.8-1.4,2.7-1.9
	c2.9-2,6.1-3.6,9.4-4.7l0,0h0l1.2,0.1c0.2,0,0.4,0,0.5,0.1h0.4l1.6,0.2l1.5,0.2l1.6,0.2l1.6,0.3c0.6,0.1,1.1,0.2,1.7,0.3L342,25.9z"
	/>
<path class="st1" d="M290.3,118c0,0.8,0.1,1.7,0.4,2.5l-5.6,3.6c-3.4-2.3-6.5-5-9.2-8c0.2-0.5,0.3-1,0.3-1.5c0-2.1-1.5-3.9-3.6-4.2
	c-2.4-6.3-4.3-12.7-5.7-19.3l24.9,22.4C290.8,114.8,290.3,116.4,290.3,118z"/>
<path class="st1" d="M295.1,125l-0.2,4.4c-2.2-0.9-4.3-1.9-6.4-3.1l-0.7-0.4l4.4-2.8C293,123.9,294,124.6,295.1,125z"/>
<path class="st1" d="M304.5,132.2c-2.2-0.4-4.4-1-6.6-1.8l0.2-5c0.9,0,1.8-0.2,2.6-0.5L304.5,132.2z"/>
<path class="st1" d="M335.5,127.9c-8.4,4.4-18,6.1-27.4,4.9l-5-9.5c0.8-0.8,1.4-1.8,1.8-2.9l3.3,0.8L335.5,127.9z"/>
<path class="st1" d="M295.3,98.6l-0.3-0.1c-4.3-2.5-8.1-5.6-11.4-9.2l5.3,0.4C290.6,92.8,292.8,95.9,295.3,98.6z"/>
<path class="st1" d="M287.3,86.5l-6.4-0.4c-5.6-7.5-8.8-16.5-9.2-25.8h0.4c1.9,0,3.5-1.3,3.9-3.1l9.1-1.5
	C282.1,65.8,282.9,76.8,287.3,86.5z"/>
<path class="st1" d="M312.9,26.7c-12.3,4.2-22,13.6-26.7,25.7l-10.7,1.8c-0.1-0.2-0.2-0.3-0.4-0.5c3.8-6.3,14.2-20.5,35.9-28.1
	C311.5,26.2,312.2,26.5,312.9,26.7z"/>
<path class="st1" d="M331.5,24.3L331.5,24.3L331.5,24.3c-5.1-0.4-10.1,0-14.9,1.3l-0.2-0.3l0,0c0.2-0.3,0.4-0.6,0.5-0.9
	C321.7,23.8,326.7,23.8,331.5,24.3z"/>
<path class="st1" d="M275,85.6l-6.1-0.4c-0.4-2-1.8-3.6-3.8-4.3c0.2-1.9,0.5-4.2,1-6.6C268.8,78.3,271.8,82.1,275,85.6z"/>
<path class="st2" d="M322.5,52.2l-8,29.2c-0.4,0-0.7-0.1-1.1-0.1c-4.1,0-7.7,2.5-9.1,6.3l-1.8-0.1l-5.4-0.4l-9.8-0.7
	c-4.4-9.7-5.2-20.7-2.2-30.9l18.1-3c-2.6,6.4-3.8,13.2-3.6,20.1c0.9-3.2,2.1-6.4,3.5-9.5c1.9-4.1,4.1-8,6.7-11.7l10.5-1.8
	C320.8,50.7,321.5,51.6,322.5,52.2z"/>
<path class="st2" d="M321.7,43c-1.1,0.9-1.8,2.3-2,3.7l-5.5,0.9l-1.8,0.3c1-1.2,2-2.3,3-3.4c1.5-1.6,3.1-3.1,4.8-4.6
	C320.8,41.1,321.3,42.1,321.7,43z"/>
<path class="st2" d="M360.1,31.6l-30.3,12.2c-1.1-1.4-2.7-2.2-4.5-2.2c-0.3,0-0.6,0-0.9,0.1l-1.7-3.7c1.5-1.1,3-2.2,4.6-3.1
	c0.5-0.3,1-0.6,1.5-0.8c1-0.6,2.1-1.1,3.1-1.6c2-0.9,4.1-1.7,6.2-2.3c1.1-0.3,2.1-0.6,3.2-0.8c0.3-0.1,0.7-0.1,1-0.2
	s0.9-0.1,1.4-0.2l1-0.1c0.5-0.1,1-0.1,1.5-0.1h0.8c0.3,0,0.5,0,0.8,0l0,0c0.6,0,1.2,0,1.8,0s1,0.1,1.5,0.1c1,0.1,1.9,0.2,2.8,0.4
	C356,29.9,358,30.7,360.1,31.6z"/>
<path class="st2" d="M307.1,98.4l-2.4,4.3l-1.6,2.9c-6-4.1-10.9-9.6-14.3-16l8.1,0.6l6.6,0.5c0,0.1,0,0.3,0,0.4
	C303.6,93.9,304.9,96.6,307.1,98.4z"/>
<path class="st2" d="M334.9,113.8c-9.8,1.1-19.8-1-28.3-6c-0.3-0.2-0.6-0.4-0.9-0.6l4-7.2c0.2,0.1,0.5,0.2,0.7,0.2
	c0.9,0.3,1.9,0.5,2.9,0.5c2.8,0,5.5-1.2,7.4-3.4l11.8,13.7L334.9,113.8z"/>
<path class="st2" d="M316.9,33c-5.2,4.6-9.3,10.1-12.3,16.3l-18.5,3.1c4.6-12.1,14.4-21.5,26.6-25.7c0.2,0.1,0.5,0.1,0.7,0.1h0.2
	C314.7,28.5,315.9,30.7,316.9,33z"/>
<path class="st2" d="M331.5,24.3c-3.3,1.2-6.5,2.8-9.4,4.7c-0.9,0.6-1.9,1.3-2.7,1.9c-0.3-0.7-0.7-1.3-1-2c-0.6-1.2-1.2-2.4-1.8-3.5
	C321.4,24.3,326.5,23.9,331.5,24.3z"/>
<path class="st2" d="M330.5,68.1c-3.4,7.7-3.5,16.4-0.4,24.1l-7.1-0.9c0-0.1,0-0.2,0-0.3c0-3.8-2.2-7.3-5.7-8.8l8-29.2l0,0
	c0.5,0,1-0.1,1.5-0.2l6.4,10.5C332.2,64.8,331.3,66.4,330.5,68.1z"/>
<path class="st2" d="M368.4,42.9c-1.7-0.1-3.3-0.1-5,0l0.2-2l0.6-5.4c0.3,0,0.5-0.1,0.8-0.2L368.4,42.9z"/>
<path class="st2" d="M361.4,34.3v0.2L361,38l-0.6,5.3c-10.5,1.6-20.3,8.2-25,17.5l-5.9-9.6c1-1,1.5-2.4,1.5-3.8c0-0.2,0-0.4,0-0.6
	l24.8-10.1l2.6-1.1L361.4,34.3L361.4,34.3z"/>
<path class="st3" d="M400.2,83.3c-0.2-2-0.5-3.9-1-5.9c-0.7-2.8-1.7-5.6-2.9-8.3c-0.1-0.2-0.2-0.4-0.3-0.6c-0.7-1.5-1.4-3-2.3-4.7
	c-3.8-6.8-8.6-13.1-14.1-18.7c-1.2-1.2-2.5-2.5-3.9-3.8c-2.6-2.5-5.6-5-8.8-7.5c0.4-0.6,0.6-1.3,0.6-2.1c0-0.4-0.1-0.7-0.2-1.1
	c-0.5-1.5-1.8-2.6-3.5-2.7h-0.1c-0.9,0-1.8,0.4-2.5,1c-6.2-2.7-12.6-4.7-19.2-6.1c-0.9-0.2-1.7-0.3-2.5-0.5
	c-1.6-0.3-3.2-0.5-4.8-0.7c-6.2-0.8-12.4-0.9-18.6-0.2c-0.2-0.2-0.4-0.4-0.6-0.6c-0.6-0.5-1.3-0.8-2.1-0.8c-1.1,0-2.1,0.5-2.7,1.4
	c-0.3,0.4-0.5,0.9-0.6,1.4c-1.1,0.4-2.3,0.8-3.4,1.2c-20.8,8.1-30.8,21.9-34.5,28.3h-0.3h-0.1c-2.2,0-4,1.8-4,4
	c0,0.7,0.2,1.5,0.6,2.1c-2.3,3.8-3.9,8-4.9,12.4c-0.7,2.9-1.2,5.9-1.5,8.9c0,0.4-0.1,0.7-0.1,1.1c-3.1,0.7-5,3.7-4.4,6.8
	c0.6,2.6,2.9,4.5,5.6,4.5c0.2,0,0.4,0,0.6,0c1.4,6.5,3.3,12.8,5.6,19c-2,1.3-2.6,3.9-1.4,5.9s3.9,2.6,5.9,1.4
	c0.8-0.5,1.4-1.3,1.8-2.2c0.2-0.5,0.3-1,0.3-1.5c0-2.1-1.5-3.9-3.6-4.2c-2.4-6.3-4.3-12.7-5.7-19.3l24.9,22.4
	c-1,1.3-1.5,2.9-1.5,4.5c0,0.8,0.1,1.7,0.4,2.5l-5.6,3.6l-19.8,12.7c-1.8-1.3-4.4-0.9-5.7,0.9c-1.3,1.8-0.9,4.4,0.9,5.7
	c1.8,1.3,4.4,0.9,5.7-0.9c0.5-0.7,0.8-1.5,0.8-2.4c0-0.3,0-0.5-0.1-0.8l21-13.4l4.4-2.8c0.8,0.9,1.7,1.5,2.8,2l-0.2,4.4l-0.8,19.8
	c-2.6,0.7-4,3.4-3.3,5.9c0.7,2.6,3.4,4,5.9,3.3c0.7-0.2,1.3-0.5,1.8-1l18.9,10.2c-0.1,0.3-0.1,0.7-0.1,1c0,1.1,0.3,2.1,0.8,3l0,0
	l-19.4,13.8c-0.7-0.5-1.6-0.8-2.5-0.8c-2.4,0-4.4,2-4.4,4.4s2,4.4,4.4,4.4c2.4,0,4.4-2,4.4-4.4c0-0.4-0.1-0.8-0.2-1.2l19.8-14.1
	c2.9,1.8,6.6,0.9,8.4-2c0-0.1,0.1-0.1,0.1-0.2c4.2,1.6,24,9.1,24.3,9.1s5.6,2.1,8.1,1c1.9-0.9,3.5-2.4,4.4-4.2
	c0.4-0.9,10.4-29,14.4-31.5l8.5-0.2c1.4,0,2.7-0.6,3.6-1.6c1.5-1.7-0.8-6.3-0.8-6.3c-1.7-4.7-3-9.5-3.8-14.5c-0.3-1.7-0.3-3.5,0-5.2
	c0.1-0.6,0.4-1.1,0.7-1.6c1.3-1.8,2.8-3.4,4.6-4.7c1.1-1,2-2.2,2.6-3.5c1.2-2.5,2.1-5.2,2.7-7.9l0,0l0,0
	C399.4,94.8,400.1,89.1,400.2,83.3z M316.4,25.3c0.2-0.3,0.4-0.6,0.5-0.9c4.9-0.5,9.8-0.5,14.7,0l1.2,0.1l0.5,0.1h0.4l1.6,0.2
	l1.5,0.2l1.6,0.2l1.6,0.3c0.6,0.1,1.1,0.2,1.7,0.3l0.3,0.1l0,0c2,0.4,4,0.9,6,1.5c1.9,0.6,3.9,1.2,6,1.9s4,1.5,6.1,2.4l-4.4,1.8
	l-1.7,0.7l-24.2,9.8c-1.1-1.4-2.7-2.2-4.5-2.2c-0.3,0-0.6,0-0.9,0.1l-1.7-3.7c-0.3-0.7-0.6-1.3-1-2c-0.8-1.7-1.6-3.4-2.4-5
	c-0.3-0.7-0.7-1.3-1-2c-0.6-1.2-1.2-2.4-1.8-3.5L316.4,25.3L316.4,25.3z M309.5,26.3c0.5-0.2,1.1-0.4,1.6-0.6c0.5,0.5,1.1,0.9,1.7,1
	c0.2,0.1,0.5,0.1,0.7,0.1h0.2c0.3,0.5,0.6,1.1,0.9,1.7c0.7,1.4,1.5,2.9,2.3,4.5c0.9,1.8,1.8,3.6,2.6,5.4l0.8,1.6
	c0.5,1.1,1,2.1,1.4,3.1c-0.5,0.4-1,1-1.3,1.6c0,0.1-0.1,0.1-0.1,0.2c0,0.1-0.1,0.1-0.1,0.2c0,0.1-0.1,0.2-0.1,0.2
	c-0.1,0.2-0.2,0.5-0.2,0.8c0,0.1,0,0.2-0.1,0.3c0,0.1,0,0.3-0.1,0.5l-5.5,0.9l-1.8,0.3l-7.8,1.3l-18.5,3.1l-10.7,1.8
	c-0.1-0.2-0.2-0.3-0.4-0.5C278.9,47.5,288.9,33.9,309.5,26.3L309.5,26.3z M265.2,80.9c0.2-1.9,0.5-4.2,1-6.6c0.6-3.5,1.7-7,3.1-10.3
	l0,0c0.6-1.3,1.2-2.6,2-3.8c0.2,0,0.3,0.1,0.5,0.1h0.1h0.4c1.9,0,3.5-1.3,3.9-3.1l9.1-1.5l18.1-3l6.6-1.1l10.5-1.8
	c0.5,1,1.2,1.9,2.2,2.4l-8,29.2c-0.4,0-0.7-0.1-1.1-0.1c-4.1,0-7.7,2.5-9.1,6.3l-1.8-0.1l-5.4-0.4l-9.8-0.7L281,86l-5.9-0.4
	l-6.1-0.4C268.6,83.1,267.1,81.5,265.2,80.9z M320.7,97.3l5.5,6.3l0,0l0.3,0.4l6,7l2.4,2.8l4,4.7l4,4.6l2.4,2.8
	c-0.6,0.2-1.1,0.6-1.5,1l-4.6-1.1l-33.9-8.4c-0.2-1.9-1-3.7-2.5-5l2.3-4.1l0.6-1.1l4-7.2c0.2,0.1,0.5,0.2,0.7,0.2
	c0.9,0.3,1.9,0.5,2.9,0.5C316.1,100.6,318.8,99.4,320.7,97.3L320.7,97.3z M294,111.5l-25.5-23c0.1-0.1,0.1-0.3,0.2-0.4l3.5,0.2
	l5.9,0.4l5.5,0.4l5.3,0.4l8.1,0.6l6.6,0.5c0,0.1,0,0.3,0,0.4c0,2.9,1.3,5.6,3.5,7.4l-2.4,4.3l-1.6,2.9l-0.8,1.4l-1.6,3l-0.6,1
	c-0.8-0.3-1.6-0.4-2.4-0.4C296.5,110.5,295.2,110.9,294,111.5L294,111.5z M318.6,164.9l-18.5-10c0.1-0.4,0.1-0.7,0.1-1.1
	c0-2-1.2-3.8-3.1-4.5l0,0l0.8-18.8l0.2-5c0.9,0,1.8-0.2,2.6-0.5l3.8,7.3l16.3,30.8C319.9,163.5,319.2,164.1,318.6,164.9z
	 M326.7,163.4c-0.9-0.5-1.8-0.8-2.8-0.9l-15.7-29.6l-5-9.5c0.8-0.8,1.4-1.8,1.8-2.9l3.3,0.8l27.3,6.7l3.7,0.9l2.9,0.7
	c-0.2,0.6-0.3,1.2-0.3,1.8c0,2.1,1.1,4.1,2.9,5.2L326.7,163.4z M342.3,173.5l-12.7-4.9v-0.1c0-1-0.3-2.1-0.8-3l18.9-28.2h0.1
	c0.5,0,1.1-0.1,1.6-0.2L342.3,173.5z M347.7,93.9c0,0.2,0,0.4,0,0.5l-8.5-1.1l-3-0.4l-2.9-0.4l-3.3-0.4l-7.1-0.9c0-0.1,0-0.2,0-0.3
	c0-3.8-2.2-7.3-5.7-8.8l8-29.2l0,0c0.5,0,1-0.1,1.5-0.2l6.4,10.5l0.8,1.3l3,4.9l2.9,4.7l9.4,15.3C348.3,90.7,347.7,92.2,347.7,93.9z
	 M354,87.6c-0.1,0-0.3,0-0.4,0c-0.1,0-0.3,0-0.4,0h-0.3l-0.4,0.1l-0.4,0.1l-9.9-16.1l-3.2-5.2l-3.4-5.6l-0.2-0.3l-5.9-9.6
	c1-1,1.5-2.4,1.5-3.8c0-0.2,0-0.4,0-0.6l24.8-10.1l2.6-1.1l2.9-1.1l0.2-0.1v0.2l-0.4,3.4l-0.6,5.3l-0.8,6.4l-0.5,4.6l-0.9,7.5
	l-3.1,26C354.8,87.6,354.4,87.6,354,87.6L354,87.6z M360,92.3c-0.3-1.2-1-2.4-2-3.2l3.3-28.2l0.8-7.1l0.5-4.1l0.8-6.8l0.2-2l0.6-5.4
	c0.3,0,0.5-0.1,0.8-0.2l3.3,7.6l3.5,8.2l1.4,3.2l2.5,5.8l3.3,7.6c-2.4,0.7-4,3-4,5.4c0,1.4,0.5,2.8,1.5,3.9L360,92.3z"/>
<path class="st2" d="M361.3,111c0,0,7.4,3.6,21,1.7C382.3,112.6,369.5,126.7,361.3,111z"/>
<g class="st4">
	<path class="st3" d="M28,153.4l4-4.5h20.1l-4,4.5H28z M38.1,177.1v-19.2l4-4.5v19.3L38.1,177.1z"/>
</g>
<g class="st4">
	<path class="st3" d="M78.6,172.6l-4,4.5H56.3v-23.7l4-4.4v23.7H78.6z M60.3,153.3l4-4.4h14.3l-4,4.4H60.3z M60.3,165.2l4-4.5h8.8
		l-4,4.5H60.3z"/>
</g>
<g class="st4">
	<path class="st3" d="M102.3,153.4c-5.5,0-11.7-0.9-16.4,2.3c-2.7,5.1-0.9,11.4,4,14.7c5,3.3,12,3.1,16.4-1l1.1-1.2l0.6-0.6
		c-1.6,2.1-3.5,4.2-5.5,6c-1.9,1.7-4.2,2.9-6.8,3.3c-10.1,1.7-18.3-8.3-13.7-16.9c1.1-2.1,3-3.9,4.6-5.6c1.5-1.7,3-3.1,5.1-4.1
		c2.2-1,4.6-1.2,7-1.3h7.7L102.3,153.4z"/>
</g>
<g class="st4">
	<path class="st3" d="M111.2,177.1v-23.7l4-4.5v23.7L111.2,177.1z M129.5,177.1v-11.9h-14.3l4-4.4h10.3v-7.4l4-4.5v23.7L129.5,177.1
		z"/>
</g>
<g class="st4">
	<path class="st3" d="M189,148.9c0,3.9,0.3,7.9-0.2,11.8c-0.4,3.9-1.9,7-4.6,10c-1.3,1.5-2.7,3.1-4.3,4.4c-0.7,0.6-1.5,1.1-2.3,1.5
		c-0.8,0.4-1,0.4-1.8,0c-3.3-1.7-5.5-4.6-6.5-7.9c-1.1,1.4-2.4,2.8-3.7,4.1c-1.2,1.2-2.3,2.4-3.8,3.3c-2,1.1-1.7,1.1-3.6-0.2
		c-1.2-0.8-2.3-1.8-3.2-2.9c-2.1-2.7-2.8-6.1-3-9.4c-0.2-3.5-0.1-7-0.1-10.4l4-4.5c0,5.1-0.6,10.5,0.9,15.4c0.7,2.3,1.9,4.4,3.7,6.1
		c0.9,0.8,1.9,1.4,2.9,2c0.6,0.2,0.6,0.2,1.1,0.1c0.6-0.2,1.3-0.7,1.8-1c2.9-5.5,2-12.2,2-18.1l4-4.5c0.5,5.2-0.6,10.3,0.9,15.2
		c0.7,2.3,1.8,4.5,3.7,6.2c0.9,0.8,1.9,1.5,3,2.1c0.6,0.2,0.6,0.2,1.1,0.1c0.6-0.2,1.3-0.7,1.8-1c2.9-5.5,2-12.2,2-18.1L189,148.9z"
		/>
</g>
<g class="st4">
	<path class="st3" d="M218.1,172.6l-4,4.5h-18.3v-23.7l4-4.4v23.7H218.1z M199.8,153.3l4-4.4h14.3l-4,4.4H199.8z M199.8,165.2l4-4.5
		h8.8l-4,4.5H199.8z"/>
	<path class="st3" d="M244.3,172.6l-4,4.5H222v-23.7l4-4.4v23.7H244.3z M226,153.3l4-4.4h14.3l-4,4.4H226z M226,165.2l4-4.5h8.8
		l-4,4.5H226z"/>
</g>
<g class="st4">
	<path class="st3" d="M274.5,172.7l-4,4.4l-10-13.6l-4.3,4.4v4.8l-4,4.4v-23.7l4-4.5v17.6l18.3-17.6l-9.8,10.4L274.5,172.7z"/>
</g>
<g class="st4">
	<path class="st3" d="M179.3,196.1c0.8,0,1.3,0.1,1.7,0.1c0.3,0,0.5,0.1,0.5,0.2c0,0.1,0,0.1-0.1,0.1c-0.1,0-0.1,0-0.3,0
		c-0.1,0-0.3,0-0.4,0c-0.3,0-0.7,0.1-1.2,0.2s-0.9,0.1-1,0.1c-0.3,0-0.4-0.1-0.4-0.3c0-0.2,0.1-0.5,0.2-0.8s0.3-0.6,0.6-0.9
		s0.5-0.5,0.7-0.6c0.3-0.1,0.8-0.3,1.4-0.4c0.6-0.1,1.4-0.2,2.2-0.3s1.5-0.1,2.2-0.1c0.3,0,0.6,0,0.7,0.1c0.2,0.1,0.3,0.1,0.3,0.2
		c0.1,0.1,0.2,0.3,0.3,0.6c0.1,0.3,0.2,0.6,0.2,0.9c0,0.4-0.2,0.8-0.5,1.1c-0.3,0.3-0.8,0.6-1.4,0.9s-1.6,0.7-3,1.2
		c-1.4,0.6-2.6,1-3.4,1.3c-0.1,0-0.2,0.1-0.5,0.2c-0.2,0.1-0.4,0.2-0.6,0.3c-0.2,0.1-0.4,0.2-0.5,0.4c1-0.1,2.6-0.2,4.7-0.5
		c0.6-0.1,1.2-0.2,1.7-0.3s0.9-0.1,1-0.1c0.2,0,0.3,0.1,0.3,0.2c0,0.1,0,0.2-0.1,0.4s-0.2,0.3-0.3,0.5c-0.1,0.2-0.3,0.3-0.5,0.4
		c-1,0.6-2.9,0.8-5.7,0.8c-0.7,0-1.2-0.1-1.5-0.2c-0.1-0.1-0.3-0.3-0.5-0.6c-0.2-0.3-0.2-0.5-0.2-0.6c0-0.2,0.2-0.5,0.6-0.9
		c0.4-0.3,0.9-0.7,1.6-1.1s1.4-0.7,2.2-1c2.4-0.8,3.7-1.3,3.8-1.4c0.5-0.2,1-0.5,1.3-0.7s0.5-0.4,0.5-0.6c0-0.1-0.1-0.2-0.2-0.3
		c-0.2-0.1-0.4-0.1-0.7-0.1c-0.5,0-1.1,0.1-1.7,0.2c-0.7,0.1-1.4,0.3-2.1,0.5C180.4,195.6,179.8,195.8,179.3,196.1z"/>
	<path class="st3" d="M214.8,194.2c0.3,0.1,0.6,0.3,0.8,0.5c0.2,0.2,0.2,0.5,0.2,1c0,0.6-0.2,1.3-0.6,2.1c-0.4,0.7-1,1.4-1.8,2.1
		s-1.6,1.2-2.6,1.6c-1.1,0.5-2,0.7-2.7,0.7c-0.5,0-1-0.1-1.5-0.3c-0.5-0.2-0.9-0.5-1.1-0.9c-0.3-0.4-0.4-0.8-0.4-1.3
		c0-0.7,0.3-1.4,0.9-2.2c0.6-0.8,1.4-1.4,2.4-2.1c1-0.6,1.9-1.1,3-1.4c1-0.3,1.9-0.4,2.7-0.3C214.5,193.7,214.8,193.9,214.8,194.2z
		 M212.3,195.5l0.4-0.5c-0.4,0.1-0.8,0.3-1.2,0.4c-0.3,0.1-0.7,0.3-1.2,0.6c-0.4,0.2-0.9,0.5-1.4,0.9c-0.8,0.6-1.4,1.2-1.7,1.8
		c-0.4,0.6-0.6,1-0.6,1.4c0,0.6,0.3,0.9,0.9,0.9c0.4,0,0.9-0.1,1.5-0.4c0.7-0.2,1.4-0.6,2.1-1c0.7-0.4,1.3-0.8,1.9-1.3
		c0.5-0.5,0.9-1,1.2-1.5c0.3-0.5,0.4-0.9,0.4-1.2c0-0.2-0.1-0.4-0.2-0.5s-0.4-0.2-0.6-0.2c-0.2,0-0.5,0.1-0.7,0.2
		C213,195.1,212.7,195.3,212.3,195.5z"/>
	<path class="st3" d="M237.6,196.1c0.8,0,1.3,0.1,1.7,0.1c0.3,0,0.5,0.1,0.5,0.2c0,0.1,0,0.1-0.1,0.1c-0.1,0-0.1,0-0.3,0
		c-0.1,0-0.3,0-0.4,0c-0.3,0-0.7,0.1-1.2,0.2s-0.9,0.1-1,0.1c-0.3,0-0.4-0.1-0.4-0.3c0-0.2,0.1-0.5,0.2-0.8s0.3-0.6,0.6-0.9
		c0.2-0.3,0.5-0.5,0.7-0.6c0.3-0.1,0.8-0.3,1.4-0.4c0.6-0.1,1.4-0.2,2.2-0.3s1.5-0.1,2.2-0.1c0.3,0,0.6,0,0.7,0.1
		c0.2,0.1,0.3,0.1,0.3,0.2c0.1,0.1,0.2,0.3,0.3,0.6c0.1,0.3,0.2,0.6,0.2,0.9c0,0.4-0.2,0.8-0.5,1.1c-0.3,0.3-0.8,0.6-1.4,0.9
		s-1.6,0.7-3,1.2c-1.4,0.6-2.6,1-3.4,1.3c-0.1,0-0.2,0.1-0.5,0.2c-0.2,0.1-0.4,0.2-0.6,0.3s-0.4,0.2-0.5,0.4c1-0.1,2.6-0.2,4.7-0.5
		c0.6-0.1,1.2-0.2,1.7-0.3c0.6-0.1,0.9-0.1,1-0.1c0.2,0,0.3,0.1,0.3,0.2c0,0.1,0,0.2-0.1,0.4c-0.1,0.2-0.2,0.3-0.3,0.5
		c-0.1,0.2-0.3,0.3-0.5,0.4c-1,0.6-2.9,0.8-5.7,0.8c-0.7,0-1.2-0.1-1.5-0.2c-0.1-0.1-0.3-0.3-0.5-0.6c-0.2-0.3-0.2-0.5-0.2-0.6
		c0-0.2,0.2-0.5,0.6-0.9c0.4-0.3,0.9-0.7,1.6-1.1s1.4-0.7,2.2-1c2.4-0.8,3.7-1.3,3.8-1.4c0.5-0.2,1-0.5,1.3-0.7
		c0.3-0.2,0.5-0.4,0.5-0.6c0-0.1-0.1-0.2-0.2-0.3c-0.2-0.1-0.4-0.1-0.7-0.1c-0.5,0-1.1,0.1-1.7,0.2c-0.7,0.1-1.4,0.3-2.1,0.5
		C238.7,195.6,238.1,195.8,237.6,196.1z"/>
	<path class="st3" d="M273.1,194.2c0.3,0.1,0.6,0.3,0.8,0.5c0.2,0.2,0.2,0.5,0.2,1c0,0.6-0.2,1.3-0.6,2.1c-0.4,0.7-1,1.4-1.8,2.1
		c-0.8,0.7-1.6,1.2-2.6,1.6c-1.1,0.5-2,0.7-2.7,0.7c-0.5,0-1-0.1-1.5-0.3c-0.5-0.2-0.9-0.5-1.1-0.9s-0.4-0.8-0.4-1.3
		c0-0.7,0.3-1.4,0.9-2.2c0.6-0.8,1.4-1.4,2.4-2.1c1-0.6,1.9-1.1,3-1.4c1-0.3,1.9-0.4,2.7-0.3C272.8,193.7,273.1,193.9,273.1,194.2z
		 M270.6,195.5l0.4-0.5c-0.4,0.1-0.8,0.3-1.2,0.4c-0.3,0.1-0.7,0.3-1.2,0.6c-0.4,0.2-0.9,0.5-1.4,0.9c-0.8,0.6-1.4,1.2-1.7,1.8
		c-0.4,0.6-0.6,1-0.6,1.4c0,0.6,0.3,0.9,0.9,0.9c0.4,0,0.9-0.1,1.5-0.4c0.7-0.2,1.4-0.6,2.1-1c0.7-0.4,1.3-0.8,1.9-1.3
		c0.5-0.5,0.9-1,1.2-1.5c0.3-0.5,0.4-0.9,0.4-1.2c0-0.2-0.1-0.4-0.2-0.5c-0.2-0.1-0.4-0.2-0.6-0.2c-0.2,0-0.5,0.1-0.7,0.2
		C271.3,195.1,271,195.3,270.6,195.5z"/>
</g>
</svg>
