<?xml version="1.0" encoding="utf-8"?>
<!-- Generator: Adobe Illustrator 24.0.2, SVG Export Plug-In . SVG Version: 6.00 Build 0)  -->
<svg version="1.1" id="Layer_1" xmlns="http://www.w3.org/2000/svg" xmlns:xlink="http://www.w3.org/1999/xlink" x="0px" y="0px"
	 viewBox="0 0 302.1 323.4" style="enable-background:new 0 0 302.1 323.4;" xml:space="preserve">
<style type="text/css">
	.st0{fill:none;}
	.st1{fill:#F7F7FF;}
	.st2{fill:#FFFFFF;}
	.st3{fill:#395AB7;}
	.st4{fill:none;stroke:#2B303A;stroke-width:2;stroke-miterlimit:10;}
	.st5{fill:#2B303A;}
	.st6{fill:url(#SVGID_1_);}
	.st7{opacity:0.7;}
	.st8{fill:none;stroke:#F7F7FF;stroke-miterlimit:10;}
	.st9{fill:none;stroke:#2B303A;stroke-width:0.5;stroke-miterlimit:10;}
	.st10{font-family:'ArialMT';}
	.st11{font-size:5.29px;}
	.st12{fill:#78B5FF;}
	.st13{font-family:'Futura-Medium';}
	.st14{font-size:15.66px;}
	.st15{font-size:10.11px;}
	.st16{fill:#AED7FF;}
	.st17{font-size:9.83px;}
	.st18{font-size:4.73px;}
	.st19{fill:#EC2027;}
	.st20{font-family:'IowanOldStyle-Roman';}
	.st21{font-size:3.19px;}
	.st22{font-family:'Arial-BoldMT';}
	.st23{font-size:5.2px;}
	.st24{fill:#DA503F;}
	.st25{fill:#429960;}
	.st26{fill:#F1BB41;}
	.st27{fill:#5C7FBF;}
	.st28{font-size:3.87px;}
	.st29{font-size:2.83px;}
	.st30{fill:url(#SVGID_2_);}
	.st31{fill:url(#SVGID_3_);}
	.st32{fill:url(#SVGID_4_);}
	.st33{font-size:7px;}
	.st34{fill:#7994C5;}
	.st35{fill:#B2E0E8;}
	.st36{fill:#73C4D7;}
	.st37{font-size:13.13px;}
	.st38{font-size:7.69px;}
	.st39{font-size:5.56px;}
	.st40{font-size:12.2px;}
	.st41{fill:none;stroke:#395AB7;stroke-width:1.5;stroke-miterlimit:10;}
	.st42{fill:none;stroke:#607882;stroke-miterlimit:10;}
</style>
<pattern  y="323.4" width="7.6" height="7.6" patternUnits="userSpaceOnUse" id="New_Pattern_Swatch_9" viewBox="0 -7.6 7.6 7.6" style="overflow:visible;">
	<g>
		<rect x="0" y="-7.6" class="st0" width="7.6" height="7.6"/>
		<rect y="-7.6" class="st0" width="7.6" height="7.6"/>
		<polygon class="st1" points="0.5,-0.5 0.5,0 0,0 0,-0.5 		"/>
		<polygon class="st1" points="7.6,-7.6 7.6,-7.1 7.1,-7.1 7.1,-7.6 		"/>
		<polygon class="st1" points="0,-7.6 0.5,-7.6 0.5,-7.1 0,-7.1 		"/>
		<polygon class="st1" points="7.6,-0.5 7.6,0 7.1,0 7.1,-0.5 		"/>
	</g>
</pattern>
<title>Asset 12</title>
<g>
	<g id="Layer_2_1_">
		<g id="OBJECTS">
			<rect x="0.5" y="0.5" class="st2" width="301.1" height="322.4"/>
			<rect x="4.3" y="4.6" class="st3" width="293.5" height="314.3"/>
			<circle class="st4" cx="83.2" cy="199.9" r="77.6"/>
			<path class="st2" d="M45.7,168.9c0-27.3-16.3-52-41.4-62.8v125.6C29.4,220.9,45.6,196.2,45.7,168.9z"/>
			<path class="st5" d="M233.5,109.5c0-42.4,25.3-80.8,64.3-97.6v195.2C258.8,190.3,233.5,152,233.5,109.5z"/>
			<pattern  id="SVGID_1_" xlink:href="#New_Pattern_Swatch_9" patternTransform="matrix(1 0 0 -1 -5.1 -15935.4004)">
			</pattern>
			<rect x="153.5" y="5.1" class="st6" width="144.3" height="172.9"/>
			<g class="st7">
				
					<image style="overflow:visible;enable-background:new    ;" width="220" height="110" xlink:href="F2849B43B48909FC.png"  transform="matrix(1 0 0 1 73.37 145.27)">
				</image>
			</g>
			<circle class="st5" cx="196.6" cy="133.1" r="91.2"/>
			<ellipse class="st8" cx="196.6" cy="133.5" rx="94" ry="93.6"/>
			<g class="st7">
				
					<image style="overflow:visible;enable-background:new    ;" width="131" height="108" xlink:href="F2849B43B48909FD.png"  transform="matrix(1 0 0 1 41.37 182.27)">
				</image>
			</g>
			
				<ellipse transform="matrix(0.7071 -0.7071 0.7071 0.7071 -116.9533 117.3777)" class="st5" cx="83.2" cy="199.9" rx="68.4" ry="68.4"/>
			<rect x="4.3" y="5.7" class="st5" width="149.2" height="6.4"/>
			<line class="st9" x1="25.9" y1="285.5" x2="281.1" y2="285.5"/>
			<line class="st9" x1="79.4" y1="288.1" x2="79.4" y2="305.1"/>
			<line class="st9" x1="230.5" y1="289" x2="230.5" y2="306"/>
			<rect x="280.2" y="229.1" class="st5" width="17.6" height="9.8"/>
			<rect x="109.1" y="316.4" class="st5" width="188.6" height="3.6"/>
			<text transform="matrix(1 0 0 1 13.06 23.72)" class="st2 st10 st11">DE</text>
			<text transform="matrix(1 0 0 1 20.41 23.72)" class="st2 st10 st11">P</text>
			<text transform="matrix(1 0 0 1 23.55 23.72)" class="st2 st10 st11">A</text>
			<text transform="matrix(1 0 0 1 27.08 23.72)" class="st2 st10 st11">R</text>
			<text transform="matrix(1 0 0 1 30.8 23.72)" class="st2 st10 st11">TMEN</text>
			<text transform="matrix(1 0 0 1 45.79 23.72)" class="st2 st10 st11">T</text>
			<text transform="matrix(1 0 0 1 48.93 23.72)" class="st2 st10 st11"> OF</text>
			<text transform="matrix(1 0 0 1 13.06 31.36)" class="st2 st10 st11">COMPUTER SCIENCE</text>
			<text transform="matrix(1 0 0 1 13.06 39.01)" class="st2 st10 st11">&amp; ENGINEERING</text>
			<rect x="119" y="84.7" class="st12" width="156.6" height="19.3"/>
			<rect x="134.4" y="106.4" class="st12" width="123.5" height="18.2"/>
			<rect x="143.7" y="167.7" class="st12" width="108.5" height="15.3"/>
			<text transform="matrix(1 0 0 1 120.3 99.21)" class="st2 st13 st14">WEB DEVE</text>
			<text transform="matrix(1 0 0 1 199.5 99.21)" class="st2 st13 st14">L</text>
			<text transform="matrix(1 0 0 1 205.96 99.21)" class="st2 st13 st14">OPMENT</text>
			<text transform="matrix(1 0 0 1 138.64 120.4)" class="st2 st13 st14">ZE</text>
			<text transform="matrix(1 0 0 1 157.28 120.4)" class="st2 st13 st14">R</text>
			<text transform="matrix(1 0 0 1 166.44 120.4)" class="st2 st13 st14">O </text>
			<text transform="matrix(1 0 0 1 185.26 120.4)" class="st2 st13 st14">T</text>
			<text transform="matrix(1 0 0 1 192.43 120.4)" class="st2 st13 st14">O HE</text>
			<text transform="matrix(1 0 0 1 231.59 120.4)" class="st2 st13 st14">R</text>
			<text transform="matrix(1 0 0 1 240.74 120.4)" class="st2 st13 st14">O</text>
			<text transform="matrix(1 0 0 1 191.6 138.22)" class="st2 st13 st15">b</text>
			<text transform="matrix(1 0 0 1 197.56 138.22)" class="st2 st13 st15">y</text>
			<text transform="matrix(1 0 0 1 139.11 153.22)" class="st2 st13 st15">VRIJRAJ SI</text>
			<text transform="matrix(1 0 0 1 189.68 153.22)" class="st2 st13 st15">N</text>
			<text transform="matrix(1 0 0 1 198.37 153.22)" class="st2 st13 st15">GH (Expe</text>
			<text transform="matrix(1 0 0 1 244.77 153.22)" class="st2 st13 st15">r</text>
			<text transform="matrix(1 0 0 1 248.99 153.22)" class="st2 st13 st15">t)</text>
			<rect x="126.5" y="159.3" class="st16" width="139.9" height="1.4"/>
			<text transform="matrix(1 0 0 1 146.89 179.34)" class="st5 st13 st17">1</text>
			<text transform="matrix(1 0 0 1 152.12 179.34)" class="st5 st13 st17">7 </text>
			<text transform="matrix(1 0 0 1 161.38 179.34)" class="st5 st13 st17">A</text>
			<text transform="matrix(1 0 0 1 168.45 179.34)" class="st5 st13 st17">UGU</text>
			<text transform="matrix(1 0 0 1 191.49 179.34)" class="st5 st13 st17">S</text>
			<text transform="matrix(1 0 0 1 197.44 179.34)" class="st5 st13 st17">T</text>
			<text transform="matrix(1 0 0 1 202.09 179.34)" class="st5 st13 st17">, 5:00 PM</text>
			<text transform="matrix(1 0 0 1 158.81 171.99)" class="st5 st13 st18">t</text>
			<text transform="matrix(1 0 0 1 160.24 171.99)" class="st5 st13 st18">h</text>
			<path class="st19" d="M104.2,291.2h7.5c0.7,0,1.3,0.6,1.3,1.3v7.5c0,0.7-0.6,1.3-1.3,1.3h-7.5c-0.7,0-1.3-0.6-1.3-1.3v-7.5
				C103,291.8,103.5,291.2,104.2,291.2z"/>
			<polygon class="st2" points="110.4,298.7 109.5,298.7 109.5,294.6 105.6,294.6 105.6,293.6 110.4,293.6 			"/>
			<polygon class="st2" points="108.8,298.7 107.9,298.7 107.9,296.2 105.6,296.2 105.6,295.3 108.8,295.3 			"/>
			<rect x="105.6" y="297.1" class="st2" width="1.6" height="1.6"/>
			<text transform="matrix(0.97 0 0 1 98.6602 309.7202)" class="st2 st20 st21">UNIVERSITY</text>
			<text transform="matrix(0.7 0 0 1 97.5098 306.2798)" class="st2 st22 st23">CHITKARA</text>
			<path class="st2" d="M132.2,295h45.2c2.2,0,4,1.8,4,4v4.4c0,2.2-1.8,4-4,4h-45.2c-2.2,0-4-1.8-4-4V299
				C128.2,296.8,130,295,132.2,295z"/>
			<path class="st24" d="M131.9,300.7l1.8-1c0.2-0.1,0.5-0.1,0.6,0.2l0,0.1c0.1,0.2,0.1,0.5-0.2,0.6l-1.8,1
				c-0.2,0.1-0.5,0.1-0.6-0.2l0-0.1C131.6,301.1,131.7,300.8,131.9,300.7z"/>
			<path class="st25" d="M135.3,298.5l1.8,1c0.2,0.1,0.3,0.4,0.2,0.6l0,0.1c-0.1,0.2-0.4,0.3-0.6,0.2l-1.8-1
				c-0.2-0.1-0.3-0.4-0.2-0.6l0-0.1C134.8,298.5,135.1,298.4,135.3,298.5z"/>
			<path class="st26" d="M134.8,300.5l1.8-1c0.2-0.1,0.5-0.1,0.6,0.2l0,0.1c0.1,0.2,0.1,0.5-0.2,0.6l-1.8,1
				c-0.2,0.1-0.5,0.1-0.6-0.2l0-0.1C134.5,300.9,134.6,300.6,134.8,300.5z"/>
			<path class="st27" d="M131.9,299.5l1.8,1c0.2,0.1,0.3,0.4,0.2,0.6l0,0.1c-0.1,0.2-0.4,0.3-0.6,0.2l-1.8-1
				c-0.2-0.1-0.3-0.4-0.2-0.6l0-0.1C131.4,299.4,131.7,299.4,131.9,299.5z"/>
			<text transform="matrix(1 0 0 1 138.55 301.08)" class="st10 st28">D</text>
			<text transform="matrix(1 0 0 1 141.14 301.08)" class="st10 st28">e</text>
			<text transform="matrix(1 0 0 1 143.08 301.08)" class="st10 st28">v</text>
			<text transform="matrix(1 0 0 1 144.9 301.08)" class="st10 st28">eloper </text>
			<text transform="matrix(1 0 0 1 156.1 301.08)" class="st10 st28">S</text>
			<text transform="matrix(1 0 0 1 158 301.08)" class="st10 st28">tude</text>
			<text transform="matrix(1 0 0 1 165.53 301.08)" class="st10 st28">n</text>
			<text transform="matrix(1 0 0 1 167.66 301.08)" class="st10 st28">t Clubs</text>
			<text transform="matrix(1 0 0 1 138.55 304.26)" class="st10 st29">Chit</text>
			<text transform="matrix(1 0 0 1 143.37 304.26)" class="st10 st29">k</text>
			<text transform="matrix(1 0 0 1 144.75 304.26)" class="st10 st29">a</text>
			<text transform="matrix(1 0 0 1 146.11 304.26)" class="st10 st29">r</text>
			<text transform="matrix(1 0 0 1 147.02 304.26)" class="st10 st29">a Uni</text>
			<text transform="matrix(1 0 0 1 153.06 304.26)" class="st10 st29">v</text>
			<text transform="matrix(1 0 0 1 154.39 304.26)" class="st10 st29">ersi</text>
			<text transform="matrix(1 0 0 1 158.52 304.26)" class="st10 st29">t</text>
			<text transform="matrix(1 0 0 1 159.48 304.26)" class="st10 st29">y</text>
			
				<linearGradient id="SVGID_2_" gradientUnits="userSpaceOnUse" x1="196.54" y1="24.7601" x2="208.0001" y2="24.7601" gradientTransform="matrix(1 0 0 -1 0 326)">
				<stop  offset="0" style="stop-color:#1FA7DF"/>
				<stop  offset="0.28" style="stop-color:#1CA0DA"/>
				<stop  offset="0.67" style="stop-color:#128ECD"/>
				<stop  offset="1" style="stop-color:#0779BE"/>
			</linearGradient>
			<path class="st30" d="M208,301.3c0,3.2-2.6,5.7-5.8,5.7c-3.2,0-5.7-2.6-5.7-5.8s2.6-5.7,5.8-5.7c0,0,0,0,0,0
				C205.5,295.5,208,298.1,208,301.3C208,301.3,208,301.3,208,301.3z"/>
			
				<linearGradient id="SVGID_3_" gradientUnits="userSpaceOnUse" x1="192.15" y1="24.765" x2="212.39" y2="24.765" gradientTransform="matrix(1 0 0 -1 0 326)">
				<stop  offset="0" style="stop-color:#1FA7DF"/>
				<stop  offset="0.28" style="stop-color:#1CA0DA"/>
				<stop  offset="0.67" style="stop-color:#128ECD"/>
				<stop  offset="1" style="stop-color:#0779BE"/>
			</linearGradient>
			<path class="st31" d="M202.3,291.1l-10.2,10.1l10.1,10.2l10.2-10.1L202.3,291.1z M202.2,307.6c-3.5,0-6.3-2.9-6.3-6.4
				s2.9-6.3,6.4-6.3c3.5,0,6.3,2.9,6.3,6.4c0,0,0,0,0,0C208.6,304.8,205.7,307.6,202.2,307.6z"/>
			<path class="st2" d="M208,301.3c0,3.2-2.6,5.7-5.8,5.7c-3.2,0-5.7-2.6-5.7-5.8s2.6-5.7,5.8-5.7c0,0,0,0,0,0
				C205.5,295.5,208,298.1,208,301.3C208,301.3,208,301.3,208,301.3z"/>
			
				<linearGradient id="SVGID_4_" gradientUnits="userSpaceOnUse" x1="202.2701" y1="30.4901" x2="202.2701" y2="19.0301" gradientTransform="matrix(1 0 0 -1 0 326)">
				<stop  offset="0" style="stop-color:#24A9E1"/>
				<stop  offset="0.31" style="stop-color:#22A6DE"/>
				<stop  offset="0.57" style="stop-color:#1C9BD7"/>
				<stop  offset="0.81" style="stop-color:#138AC9"/>
				<stop  offset="1" style="stop-color:#0877BB"/>
			</linearGradient>
			<path class="st32" d="M208,301.3c0,3.2-2.6,5.7-5.8,5.7c-3.2,0-5.7-2.6-5.7-5.8s2.6-5.7,5.8-5.7c0,0,0,0,0,0
				C205.5,295.5,208,298.1,208,301.3C208,301.3,208,301.3,208,301.3z"/>
			<path class="st2" d="M199.6,300.5c0-0.1-0.1-0.2-0.2-0.3c-0.2-0.3-0.8-0.7-2.2-0.2v0.6c0,0,1.6-0.7,1.6,0.2c0,0-1.7,0-1.8,1
				c0,0.3,0.1,0.5,0.3,0.7c0.5,0.4,1.1,0.3,1.5-0.2c0,0,0,0,0,0v0.4h0.8v-2C199.6,300.6,199.6,300.5,199.6,300.5z M198.6,301.9
				c0,0.1-0.1,0.1-0.2,0.2c-0.1,0.1-0.3,0.1-0.4,0c-0.1-0.1-0.1-0.1-0.1-0.2c-0.1-0.5,1-0.5,1-0.5
				C198.8,301.5,198.7,301.7,198.6,301.9L198.6,301.9z"/>
			<path class="st2" d="M200.8,301.2c0,0.5,0.4,0.8,0.9,0.8c0,0,0,0,0,0c0.2,0,0.5-0.1,0.7-0.2v0.8c-0.2,0.1-0.4,0.1-0.7,0.1
				c-0.8,0.1-1.6-0.6-1.7-1.4c0,0,0-0.1,0-0.1c0-0.8,0.6-1.5,1.5-1.5c0.1,0,0.1,0,0.2,0c0.2,0,0.5,0,0.7,0.1v0.8
				c-0.2-0.2-0.4-0.2-0.7-0.2C201.2,300.4,200.8,300.7,200.8,301.2z"/>
			<path class="st2" d="M207.3,300.6v2.1h-0.9v-1.9c0-0.1,0-0.2-0.1-0.3c-0.2-0.2-0.5-0.2-0.7,0c-0.1,0.1-0.1,0.2-0.1,0.3v1.9h-0.9
				v-1.9c0-0.1,0-0.2-0.1-0.3c-0.1-0.1-0.2-0.1-0.3-0.1c-0.2,0-0.5,0.2-0.5,0.4c0,0,0,0,0,0v1.9h-0.9v-2.9h0.9v0.7
				c0-0.5,0.4-0.8,0.9-0.8c0,0,0,0,0,0c0.2,0,0.3,0,0.5,0.1c0.1,0,0.1,0.1,0.2,0.1c0.1,0.1,0.2,0.3,0.2,0.5c0-0.3,0.5-0.7,1-0.7
				c0.2,0,0.3,0,0.5,0.1c0.1,0,0.1,0.1,0.1,0.1C207.3,300.1,207.3,300.3,207.3,300.6z"/>
			<path class="st2" d="M202.2,303.5c0,0,0-0.1-0.1-0.1c-0.1-0.1-0.2-0.2-0.6-0.1l0,0v0.1c0,0,0,0,0.1,0s0.4-0.1,0.4,0.1
				c0,0-0.5-0.1-0.5,0.2c0,0.1,0,0.2,0.1,0.2c0.1,0.1,0.3,0.1,0.4,0c0,0,0,0,0,0v0.1l0,0h0.1c0,0,0.1,0,0.1-0.1L202.2,303.5
				L202.2,303.5z M201.9,303.9L201.9,303.9c-0.1,0.1-0.2,0.1-0.2,0c0,0,0,0-0.1-0.1c0-0.1,0.3-0.1,0.3-0.1
				C202,303.8,202,303.9,201.9,303.9L201.9,303.9z"/>
			<path class="st2" d="M199.6,303.5c0,0.2,0.1,0.4,0.3,0.4c0.1,0,0.2-0.1,0.3-0.1v0.2c-0.1,0.1-0.2,0.1-0.3,0.1
				c-0.4,0-0.5-0.3-0.5-0.6c0-0.3,0.2-0.6,0.5-0.6c0,0,0,0,0,0c0.1,0,0.2,0,0.3,0.1v0.2c-0.1-0.1-0.2-0.1-0.3-0.1
				C199.7,303.2,199.6,303.3,199.6,303.5z"/>
			<path class="st2" d="M201.2,303.6v0.6H201v-0.6c0,0,0-0.2-0.1-0.1s-0.2,0.1-0.2,0.1v0.6h-0.2v-1.3h0.2v0.5
				c0.1-0.1,0.1-0.1,0.2-0.1h0.1C201.1,303.3,201.2,303.5,201.2,303.6z"/>
			<path class="st2" d="M202.7,303.8C202.7,303.8,202.7,303.9,202.7,303.8L202.7,303.8z"/>
			<path class="st2" d="M202.7,303.6L202.7,303.6L202.7,303.6z"/>
			<path class="st2" d="M203,303.2c-0.1,0-0.2,0.1-0.2,0.1l0,0v-0.1l0,0h-0.1l0,0v1.1c0,0,0,0.1,0.1,0.1h0.1c0,0,0.1,0,0.1-0.1V304
				c0,0,0.1,0.1,0.2,0.1s0.3-0.2,0.3-0.5S203.1,303.3,203,303.2z M202.9,304L202.9,304c-0.1,0-0.1-0.1-0.1-0.1l0,0c0,0,0,0,0,0v-0.2
				l0,0l0,0c0,0,0.1-0.1,0.1-0.1h0.1c0.1,0,0.1,0.1,0.1,0.3S203,304,202.9,304L202.9,304z"/>
			<path class="st2" d="M203.8,303.5v0.4c0,0.1,0,0.1,0.1,0.1h0.1l0,0v0.2c-0.1,0-0.1,0-0.2,0c-0.1,0-0.1,0-0.2-0.1c0,0,0-0.1,0-0.1
				v-0.5h-0.1v-0.1c0,0,0,0,0.1,0h0.1v-0.2l0,0h0.1c0,0,0.1,0,0.1,0v0.2h0.2 M204.1,303.4v0.1V303.4z"/>
			<path class="st2" d="M204.6,303.3c-0.4,0-0.4,0.5-0.4,0.5c0,0.2,0.1,0.4,0.4,0.4c0,0,0,0,0,0c0.1,0,0.2,0,0.3-0.1v-0.2
				c0,0-0.4,0.2-0.5,0c0,0,0,0,0-0.1v-0.1h0.5C205,303.8,205.1,303.3,204.6,303.3z M204.8,303.6h-0.3c0,0,0-0.2,0.2-0.2
				S204.8,303.6,204.8,303.6L204.8,303.6z"/>
			<path class="st2" d="M205.8,303.3v0.2c0,0-0.1-0.1-0.3,0.1v0.5c0,0,0,0.1-0.1,0.1h-0.1c0,0-0.1,0-0.1-0.1l0,0v-0.8 M205.3,303.3
				L205.3,303.3 M205.5,303.3L205.5,303.3L205.5,303.3c0,0,0.1-0.1,0.2-0.1c0.1,0,0.1,0,0.1,0L205.5,303.3z"/>
			<text transform="matrix(1 0 0 1 238.34 299.69)" class="st2 st10 st33">Ishan Sha</text>
			<text transform="matrix(1 0 0 1 266.12 299.69)" class="st2 st10 st33">r</text>
			<text transform="matrix(1 0 0 1 268.44 299.69)" class="st2 st10 st33">ma</text>
			<text transform="matrix(1 0 0 1 30.49 298.69)" class="st2 st10 st33">M</text>
			<text transform="matrix(1 0 0 1 36.14 298.69)" class="st2 st10 st33">us</text>
			<text transform="matrix(1 0 0 1 42.77 298.69)" class="st2 st10 st33">k</text>
			<text transform="matrix(1 0 0 1 46.18 298.69)" class="st2 st10 st33">an </text>
			<text transform="matrix(1 0 0 1 54.92 298.69)" class="st2 st10 st33">G</text>
			<text transform="matrix(1 0 0 1 59.48 298.69)" class="st2 st10 st33">o</text>
			<text transform="matrix(1 0 0 1 63.27 298.69)" class="st2 st10 st33">y</text>
			<text transform="matrix(1 0 0 1 66.54 298.69)" class="st2 st10 st33">al</text>
			<path class="st34" d="M100.5,64.4c0,0,0,0.1,0,0.1l-1.7-0.2l-0.6-0.1l-0.6-0.1L97,64.1c-0.6-1.5-0.6-3.2,0.1-4.7
				c0.2-0.3,0.3-0.7,0.6-1l0.2,0.3l0.6,1c0,0.1-0.1,0.2-0.1,0.2c-0.4,0.9-0.6,1.9-0.4,2.9c0.2-0.8,0.6-1.6,1.2-2.2l1.8,3
				C100.6,63.8,100.5,64.1,100.5,64.4z"/>
			<path class="st34" d="M99.4,60.1c0.9-0.9,1.9-1.6,3.1-2l-0.6,5.1c-0.1,0-0.1,0-0.2,0c-0.1,0-0.2,0-0.4,0L99.4,60.1z"/>
			<path class="st34" d="M102.8,55.8l-0.1,0.9c-1.6,0.2-3,1.1-3.9,2.4L98.1,58v-0.1l0.1-0.2C99.4,56.6,101.1,55.9,102.8,55.8z"/>
			<path class="st34" d="M103.3,56.6l0.1-0.8c0.6,0,1.2,0.1,1.8,0.3l0.3,0.6C104.8,56.6,104,56.5,103.3,56.6z"/>
			<path class="st34" d="M105.8,60.4c0,0.3,0.1,0.5,0.3,0.8l-3.2,3c-0.1-0.2-0.2-0.5-0.4-0.6l0.7-5.5c0.6-0.1,1.2-0.2,1.9-0.2
				c0.3,0,0.7,0,1,0.1l0.6,1.5C106.1,59.5,105.8,59.9,105.8,60.4z"/>
			<path class="st35" d="M100,70.7c-0.1,0.1-0.2,0.1-0.3,0.2l-0.9-0.2L92.2,69c0-0.4-0.2-0.7-0.5-1l0.4-0.8c2.1,1,4.3,1.7,6.6,2
				l0.8,0.9L100,70.7z"/>
			<path class="st35" d="M91.6,67l-0.3,0.6l-0.1,0.2c-0.1,0-0.3-0.1-0.5-0.1c-0.3,0-0.5,0.1-0.7,0.2l-5-4.5c0,0,0,0,0-0.1l1.8,0.1
				c1.3,1.3,2.7,2.3,4.2,3.2L91.6,67z"/>
			<path class="st35" d="M93.1,56.2c-0.5,0.7-1,1.5-1.3,2.3c-0.3,0.6-0.5,1.2-0.7,1.8c0-1.3,0.2-2.7,0.7-3.9L93.1,56.2z"/>
			<path class="st35" d="M95,53.6c-0.3,0.4-0.6,0.8-0.8,1.2c-0.2,0.2-0.4,0.4-0.6,0.7l-1.5,0.2c0.6-1.2,1.4-2.3,2.4-3.2L95,53.6z"/>
			<path class="st35" d="M99.3,51.2L99.3,51.2c-1.5,0.3-2.8,1-3.9,2c-0.2-0.3-0.3-0.7-0.5-1l0.5-0.4c0.6-0.4,1.2-0.7,1.8-0.9l0,0
				h0.2h0.2H98h0.3l0.3,0h0.3l0.3,0.1L99.3,51.2z"/>
			<path class="st35" d="M89.3,69.2c0,0.2,0,0.3,0.1,0.5l-1.1,0.7c-0.7-0.4-1.3-1-1.8-1.6c0-0.1,0-0.2,0-0.3c0-0.4-0.3-0.8-0.7-0.8
				c-0.5-1.2-0.8-2.5-1.1-3.8l4.9,4.4C89.3,68.5,89.2,68.8,89.3,69.2z"/>
			<path class="st35" d="M90.2,70.5v0.8c-0.4-0.2-0.8-0.4-1.2-0.6l-0.1-0.1l0.8-0.5C89.8,70.3,90,70.4,90.2,70.5z"/>
			<path class="st35" d="M92,71.9c-0.4-0.1-0.9-0.2-1.3-0.3v-1c0.2,0,0.3,0,0.5-0.1L92,71.9z"/>
			<path class="st35" d="M98.1,71.1c-1.6,0.9-3.5,1.2-5.3,1l-1-1.9c0.2-0.2,0.3-0.4,0.3-0.6l0.7,0.2L98.1,71.1z"/>
			<path class="st35" d="M90.2,65.4L90.2,65.4c-0.9-0.5-1.6-1.1-2.2-1.8l1,0.1C89.3,64.2,89.8,64.8,90.2,65.4z"/>
			<path class="st35" d="M88.7,63l-1.2-0.1c-1.1-1.4-1.7-3.2-1.8-5h0.1c0.4,0,0.7-0.3,0.8-0.6l1.8-0.3C87.7,59,87.8,61.1,88.7,63z"
				/>
			<path class="st35" d="M93.7,51.3c-2.4,0.8-4.3,2.6-5.2,5l-2.1,0.3c0,0,0-0.1-0.1-0.1c1.6-2.6,4.1-4.5,7-5.5
				C93.4,51.2,93.5,51.3,93.7,51.3z"/>
			<path class="st35" d="M97.3,50.8L97.3,50.8c-1-0.1-2,0-2.9,0.2V51l0,0c0-0.1,0.1-0.1,0.1-0.2C95.4,50.8,96.4,50.8,97.3,50.8z"/>
			<path class="st35" d="M86.3,62.8l-1.2-0.1c-0.1-0.4-0.4-0.7-0.7-0.8c0-0.4,0.1-0.8,0.2-1.3C85.1,61.4,85.6,62.1,86.3,62.8z"/>
			<path class="st36" d="M95.5,56.3L94,62h-0.2c-0.8,0-1.5,0.5-1.8,1.2h-0.3l-1.1-0.1L88.7,63c-0.9-1.9-1-4-0.4-6l3.5-0.6
				c-0.5,1.2-0.7,2.6-0.7,3.9c0.2-0.6,0.4-1.3,0.7-1.8c0.4-0.8,0.8-1.6,1.3-2.3l2-0.3C95.2,56,95.3,56.2,95.5,56.3z"/>
			<path class="st36" d="M95.4,54.5C95.2,54.7,95,55,95,55.2l-1.1,0.2l-0.3,0.1c0.2-0.2,0.4-0.5,0.6-0.7s0.6-0.6,1-0.9
				C95.2,54.1,95.3,54.3,95.4,54.5z"/>
			<path class="st36" d="M102.9,52.3L97,54.7c-0.2-0.3-0.5-0.4-0.9-0.4H96l-0.3-0.7c0.3-0.2,0.6-0.4,0.9-0.6l0.3-0.2
				c0.2-0.1,0.4-0.2,0.6-0.3c0.4-0.2,0.8-0.3,1.2-0.4c0.2-0.1,0.4-0.1,0.6-0.2h0.2h0.3h0.2h0.3h0.7h0.3l0.6,0.1
				C102.1,52,102.5,52.1,102.9,52.3z"/>
			<path class="st36" d="M92.5,65.3l-0.5,0.8l-0.3,0.6c-0.6-0.4-1.1-0.9-1.5-1.4c-0.5-0.5-0.9-1.1-1.2-1.8l1.6,0.1l1.3,0.1
				c0,0,0,0.1,0,0.1C91.9,64.4,92.1,65,92.5,65.3z"/>
			<path class="st36" d="M98,68.3c-1.9,0.2-3.9-0.2-5.5-1.2L92.3,67l0.8-1.4l0.1,0.1c0.2,0.1,0.4,0.1,0.6,0.1c0.6,0,1.1-0.2,1.4-0.7
				l2.3,2.7L98,68.3z"/>
			<path class="st36" d="M94.5,52.5c-1,0.9-1.8,2-2.4,3.2l-3.6,0.6c0.9-2.4,2.8-4.2,5.2-5h0.2C94,51.7,94.2,52.1,94.5,52.5z"/>
			<path class="st36" d="M97.3,50.9c-0.7,0.2-1.3,0.5-1.8,0.9l-0.5,0.4c-0.1-0.1-0.1-0.3-0.2-0.4l-0.3-0.7
				C95.3,50.9,96.3,50.8,97.3,50.9z"/>
			<path class="st36" d="M97.1,59.4c-0.7,1.5-0.7,3.2-0.1,4.7l-1.4-0.2v-0.1c0-0.7-0.4-1.4-1.1-1.7l1.6-5.7l0,0c0.1,0,0.2,0,0.3,0
				l1.2,2C97.4,58.8,97.3,59.1,97.1,59.4z"/>
			<path class="st36" d="M104.5,54.5c-0.3,0-0.7,0-1,0v-0.4l0.1-1h0.2L104.5,54.5z"/>
			<path class="st36" d="M103.2,52.8L103.2,52.8l-0.1,0.7l-0.1,1c-2.1,0.3-3.9,1.6-4.9,3.5l-1.2-1.9c0.2-0.2,0.3-0.5,0.3-0.8
				c0,0,0-0.1,0-0.1l4.8-2l0.5-0.2L103.2,52.8L103.2,52.8z"/>
			<path class="st2" d="M110.7,62.4c0-0.4-0.1-0.8-0.2-1.2c-0.1-0.6-0.3-1.1-0.6-1.6c0,0,0-0.1,0-0.1c-0.1-0.3-0.3-0.6-0.5-0.9
				c-0.7-1.3-1.7-2.6-2.7-3.7l-0.8-0.7c-0.5-0.5-1.1-1-1.7-1.5c0.1-0.1,0.1-0.3,0.1-0.4c0-0.1,0-0.1,0-0.2c-0.1-0.3-0.4-0.5-0.7-0.5
				l0,0c-0.2,0-0.4,0.1-0.5,0.2c-1.2-0.5-2.5-0.9-3.8-1.2L99,50.5l-1-0.1c-1.2-0.1-2.4-0.1-3.6,0c0,0-0.1-0.1-0.1-0.1
				c-0.1-0.1-0.3-0.1-0.4-0.1c-0.2,0-0.4,0.1-0.5,0.3c-0.1,0.1-0.1,0.2-0.1,0.3l-0.7,0.2c-2.8,1-5.2,3-6.7,5.5h-0.1
				c-0.4,0-0.8,0.3-0.8,0.8c0,0.1,0,0.3,0.1,0.4c-0.5,0.7-0.8,1.6-1,2.4c-0.1,0.6-0.2,1.2-0.3,1.8v0.2c-0.6,0.1-1,0.7-0.9,1.3
				c0.1,0.5,0.6,0.9,1.1,0.9h0.1c0.3,1.3,0.7,2.5,1.1,3.7c-0.4,0.2-0.5,0.8-0.3,1.2c0.2,0.2,0.4,0.4,0.7,0.4c0.4,0,0.7-0.2,0.8-0.6
				c0-0.1,0.1-0.2,0.1-0.3c0-0.4-0.3-0.8-0.7-0.8c-0.5-1.2-0.8-2.5-1.1-3.8l4.9,4.4c-0.2,0.3-0.3,0.6-0.3,0.9c0,0.2,0,0.3,0.1,0.5
				l-1.1,0.7l-3.9,2.5c-0.1-0.1-0.3-0.2-0.5-0.2c-0.4,0-0.8,0.4-0.8,0.8s0.4,0.8,0.8,0.8s0.8-0.4,0.8-0.8c0-0.1,0-0.1,0-0.2l4.1-2.6
				l0.8-0.5c0.2,0.2,0.3,0.3,0.6,0.4v0.8L90,75.2c-0.4,0.1-0.7,0.5-0.7,0.9c0,0.5,0.4,0.9,0.9,0.9c0.2,0,0.4-0.1,0.6-0.2l3.7,2
				c0,0.1,0,0.1,0,0.2c0,0.2,0.1,0.4,0.2,0.6l0,0l-3.8,2.7c-0.1-0.1-0.3-0.2-0.5-0.2c-0.5,0-0.9,0.4-0.9,0.9c0,0.5,0.4,0.9,0.9,0.9
				c0.5,0,0.9-0.4,0.9-0.9c0,0,0,0,0,0c0-0.1,0-0.2,0-0.2l3.8-2.8c0.2,0.1,0.4,0.2,0.6,0.2c0.4,0,0.8-0.2,1-0.6
				c0.8,0.3,4.7,1.8,4.7,1.8s1.1,0.4,1.6,0.2c0.4-0.2,0.7-0.5,0.9-0.8c0.1-0.2,2-5.7,2.8-6.2h1.7c0.3,0,0.5-0.1,0.7-0.3
				c0.3-0.3-0.2-1.2-0.2-1.2c-0.3-0.9-0.6-1.9-0.7-2.8c-0.1-0.3-0.1-0.7,0-1c0-0.1,0.1-0.2,0.1-0.3c0.2-0.4,0.5-0.7,0.9-0.9
				c0.2-0.2,0.4-0.4,0.5-0.7c0.2-0.5,0.4-1,0.5-1.5l0,0C110.5,64.6,110.7,63.5,110.7,62.4z M94.4,51c0-0.1,0.1-0.1,0.1-0.2
				c1-0.1,1.9-0.1,2.9,0h0.2h0.2H98h0.3l0.3,0h0.3l0.3,0.1l0,0c0.4,0.1,0.8,0.2,1.2,0.3s0.8,0.2,1.2,0.4s0.8,0.3,1.2,0.5l-0.9,0.3
				l-0.3,0.1L97,54.7c-0.2-0.3-0.5-0.4-0.9-0.4H96l-0.3-0.7c-0.1-0.1-0.1-0.3-0.2-0.4c-0.2-0.3-0.3-0.7-0.5-1
				c-0.1-0.1-0.1-0.3-0.2-0.4L94.4,51L94.4,51L94.4,51z M93,51.2l0.3-0.1c0.1,0.1,0.2,0.2,0.3,0.2h0.2l0.2,0.3
				c0.1,0.3,0.3,0.6,0.4,0.9l0.5,1.1l0.2,0.3c0.1,0.2,0.2,0.4,0.3,0.6c-0.1,0.1-0.2,0.2-0.2,0.3l0,0l0,0l0,0V55c0,0,0,0,0,0.1
				s0,0.1,0,0.1l-1.1,0.2l-0.3,0.1l-1.5,0.2l-3.6,0.6l-2.1,0.3c0,0,0-0.1-0.1-0.1C88,54.1,90.3,52.2,93,51.2z M84.3,61.9
				c0-0.4,0.1-0.8,0.2-1.3c0.1-0.7,0.3-1.4,0.6-2l0,0c0.1-0.3,0.2-0.5,0.4-0.8h0.1h0.1c0.4,0,0.7-0.3,0.8-0.6l1.8-0.3l3.5-0.6
				l1.3-0.2l2-0.3c0.1,0.2,0.2,0.4,0.4,0.5L94,62h-0.2c-0.8,0-1.5,0.5-1.8,1.2h-0.3l-1-0.1l-2-0.2l-1.2-0.1l-1.2-0.1l-1.2-0.1
				C85,62.4,84.7,62,84.3,61.9z M95.2,65.1l1.1,1.2l0,0l0.1,0.1l1.2,1.4l0.5,0.5l0.8,0.9l0.8,0.9l0.5,0.6c-0.1,0.1-0.2,0.1-0.3,0.2
				l-0.9-0.2L92.2,69c0-0.4-0.2-0.7-0.5-1l0.4-0.8l0.1-0.2l0.8-1.4l0.1,0.1c0.2,0.1,0.4,0.1,0.6,0.1C94.3,65.7,94.8,65.5,95.2,65.1z
				 M90,67.9l-5-4.5c0,0,0,0,0-0.1h0.7l1.2,0.1l1.1,0.1l1,0.1l1.6,0.1l1.3,0.1c0,0,0,0.1,0,0.1c0,0.6,0.3,1.1,0.7,1.5L92,66.1
				l-0.3,0.6L91.6,67l-0.3,0.6l-0.1,0.2c-0.1,0-0.3-0.1-0.5-0.1C90.4,67.7,90.2,67.8,90,67.9z M94.8,78.3l-3.6-2c0-0.1,0-0.1,0-0.2
				c0-0.4-0.2-0.7-0.6-0.9l0,0l0.2-3.7v-1c0.2,0,0.3,0,0.5-0.1l0.8,1.5l3.2,6C95,78,94.9,78.1,94.8,78.3L94.8,78.3z M96.4,78
				c-0.2-0.1-0.4-0.2-0.6-0.2L92.8,72l-1-1.9c0.2-0.2,0.3-0.4,0.3-0.6l0.7,0.2l5.3,1.3l0.7,0.2l0.6,0.1c0,0.1-0.1,0.2-0.1,0.3
				c0,0.4,0.2,0.8,0.6,1L96.4,78z M99.4,80l-2.5-1l0,0c0-0.2-0.1-0.4-0.2-0.6l3.7-5.5l0,0c0.1,0,0.2,0,0.3,0L99.4,80z M100.4,64.5
				c0,0,0,0.1,0,0.1l-1.7-0.2l-0.6-0.1l-0.6-0.1L97,64.1l-1.4-0.2c0,0,0,0,0-0.1c0-0.7-0.4-1.4-1.1-1.7l1.6-5.7l0,0
				c0.1,0,0.2,0,0.3,0l1.2,2l0.2,0.3l0.6,1l0.6,0.9l1.8,3C100.6,63.9,100.5,64.1,100.4,64.5L100.4,64.5z M101.7,63.2h-0.3h-0.1
				l-1.9-3.2l-0.6-1L98.1,58v-0.1l-1.2-1.8c0.1-0.1,0.2-0.2,0.2-0.4c0-0.1,0.1-0.2,0.1-0.3c0,0,0-0.1,0-0.1l4.8-2l0.5-0.2l0.6-0.2
				l0,0l0,0l-0.1,0.7l-0.1,1l-0.2,1.3l-0.1,0.9l-0.2,1.5l-0.6,5.1C101.8,63.2,101.8,63.2,101.7,63.2L101.7,63.2z M102.8,64.2
				c-0.1-0.2-0.2-0.5-0.4-0.6l0.7-5.5l0.2-1.4l0.1-0.8l0.2-1.3v-0.4l0.1-1h0.2l0.6,1.5l0.7,1.6l0.3,0.6l0.5,1.1l0.6,1.5
				c-0.6,0.2-0.9,0.8-0.7,1.4c0,0.2,0.1,0.3,0.2,0.4L102.8,64.2z"/>
			<path class="st36" d="M103.1,67.8c1.3,0.5,2.7,0.6,4.1,0.3C107.2,68.1,104.7,70.8,103.1,67.8z"/>
			<text transform="matrix(1 0 0 1 12.99 82.22)" class="st2 st10 st37">TECH</text>
			<text transform="matrix(1 0 0 1 42.15 82.22)" class="st2 st10 st37"> </text>
			<text transform="matrix(1 0 0 1 44.46 82.22)" class="st2 st10 st37">WEEK</text>
			<text transform="matrix(1 0 0 1 65.56 92.44)" class="st2 st10 st38">2020</text>
			<text transform="matrix(1.15 0 0 1 26.0498 68.3398)" class="st2 st10 st39">PRESEN</text>
			<text transform="matrix(1.15 0 0 1 47.9453 68.3398)" class="st2 st10 st39">T</text>
			<text transform="matrix(1.15 0 0 1 51.3149 68.3398)" class="st2 st10 st39">S</text>
			<text transform="matrix(1 0 0 1 12.58 59.97)" class="st2 st10 st40">DSC    </text>
			<text transform="matrix(1 0 0 1 44.15 59.97)" class="st2 st10 st40">A</text>
			<text transform="matrix(1 0 0 1 51.44 59.97)" class="st2 st10 st40">CM</text>
			<polygon class="st2" points="39.8,55.8 41.5,58.8 40.6,58.8 39.4,56.6 38.2,58.8 37.2,58.8 38.9,55.8 37.2,52.9 38.2,52.9 
				39.4,55 40.6,52.9 41.5,52.9 			"/>
			<path class="st2" d="M237.4,235.9h26c1,0,1.8,0.8,1.8,1.8v26c0,1-0.8,1.8-1.8,1.8h-26c-1,0-1.8-0.8-1.8-1.8v-26
				C235.6,236.7,236.4,235.9,237.4,235.9L237.4,235.9z"/>
			<rect x="237.6" y="237.9" class="st41" width="25.6" height="25.6"/>
			<rect x="246.5" y="239.9" width="0.9" height="0.9"/>
			<rect x="247.4" y="239.9" width="0.9" height="0.9"/>
			<rect x="249.9" y="239.9" width="0.9" height="0.9"/>
			<rect x="251.7" y="239.9" width="0.9" height="0.9"/>
			<rect x="253.4" y="239.9" width="0.9" height="0.9"/>
			<rect x="246.5" y="240.8" width="0.9" height="0.9"/>
			<rect x="247.4" y="240.8" width="0.9" height="0.9"/>
			<rect x="248.2" y="240.8" width="0.9" height="0.9"/>
			<rect x="250.8" y="240.8" width="0.9" height="0.9"/>
			<rect x="248.2" y="241.6" width="0.9" height="0.9"/>
			<rect x="249.1" y="241.6" width="0.9" height="0.9"/>
			<rect x="249.9" y="241.6" width="0.9" height="0.9"/>
			<rect x="250.8" y="241.6" width="0.9" height="0.9"/>
			<rect x="251.7" y="241.6" width="0.9" height="0.9"/>
			<rect x="252.5" y="241.6" width="0.9" height="0.9"/>
			<rect x="246.5" y="242.5" width="0.9" height="0.9"/>
			<rect x="248.2" y="242.5" width="0.9" height="0.9"/>
			<rect x="249.9" y="242.5" width="0.9" height="0.9"/>
			<rect x="250.8" y="242.5" width="0.9" height="0.9"/>
			<rect x="251.7" y="242.5" width="0.9" height="0.9"/>
			<rect x="247.4" y="243.4" width="0.9" height="0.9"/>
			<rect x="248.2" y="243.4" width="0.9" height="0.9"/>
			<rect x="249.1" y="243.4" width="0.9" height="0.9"/>
			<rect x="251.7" y="243.4" width="0.9" height="0.9"/>
			<rect x="252.5" y="243.4" width="0.9" height="0.9"/>
			<rect x="247.4" y="244.2" width="0.9" height="0.9"/>
			<rect x="249.1" y="244.2" width="0.9" height="0.9"/>
			<rect x="250.8" y="244.2" width="0.9" height="0.9"/>
			<rect x="251.7" y="244.2" width="0.9" height="0.9"/>
			<rect x="246.5" y="245.1" width="0.9" height="0.9"/>
			<rect x="248.2" y="245.1" width="0.9" height="0.9"/>
			<rect x="249.9" y="245.1" width="0.9" height="0.9"/>
			<rect x="251.7" y="245.1" width="0.9" height="0.9"/>
			<rect x="253.4" y="245.1" width="0.9" height="0.9"/>
			<rect x="246.5" y="245.9" width="0.9" height="0.9"/>
			<rect x="249.9" y="245.9" width="0.9" height="0.9"/>
			<rect x="252.5" y="245.9" width="0.9" height="0.9"/>
			<rect x="239.6" y="246.8" width="0.9" height="0.9"/>
			<rect x="241.4" y="246.8" width="0.9" height="0.9"/>
			<rect x="242.2" y="246.8" width="0.9" height="0.9"/>
			<rect x="243.9" y="246.8" width="0.9" height="0.9"/>
			<rect x="244.8" y="246.8" width="0.9" height="0.9"/>
			<rect x="245.6" y="246.8" width="0.9" height="0.9"/>
			<rect x="247.4" y="246.8" width="0.9" height="0.9"/>
			<rect x="248.2" y="246.8" width="0.9" height="0.9"/>
			<rect x="251.7" y="246.8" width="0.9" height="0.9"/>
			<rect x="252.5" y="246.8" width="0.9" height="0.9"/>
			<rect x="253.4" y="246.8" width="0.9" height="0.9"/>
			<rect x="255.1" y="246.8" width="0.9" height="0.9"/>
			<rect x="257.7" y="246.8" width="0.9" height="0.9"/>
			<rect x="259.4" y="246.8" width="0.9" height="0.9"/>
			<rect x="260.3" y="246.8" width="0.9" height="0.9"/>
			<rect x="239.6" y="247.6" width="0.9" height="0.9"/>
			<rect x="240.5" y="247.6" width="0.9" height="0.9"/>
			<rect x="241.4" y="247.6" width="0.9" height="0.9"/>
			<rect x="242.2" y="247.6" width="0.9" height="0.9"/>
			<rect x="245.6" y="247.6" width="0.9" height="0.9"/>
			<rect x="246.5" y="247.6" width="0.9" height="0.9"/>
			<rect x="249.1" y="247.6" width="0.9" height="0.9"/>
			<rect x="253.4" y="247.6" width="0.9" height="0.9"/>
			<rect x="256" y="247.6" width="0.9" height="0.9"/>
			<rect x="259.4" y="247.6" width="0.9" height="0.9"/>
			<rect x="239.6" y="248.5" width="0.9" height="0.9"/>
			<rect x="244.8" y="248.5" width="0.9" height="0.9"/>
			<rect x="246.5" y="248.5" width="0.9" height="0.9"/>
			<rect x="249.1" y="248.5" width="0.9" height="0.9"/>
			<rect x="249.9" y="248.5" width="0.9" height="0.9"/>
			<rect x="250.8" y="248.5" width="0.9" height="0.9"/>
			<rect x="251.7" y="248.5" width="0.9" height="0.9"/>
			<rect x="253.4" y="248.5" width="0.9" height="0.9"/>
			<rect x="256.8" y="248.5" width="0.9" height="0.9"/>
			<rect x="241.4" y="249.4" width="0.9" height="0.9"/>
			<rect x="243.9" y="249.4" width="0.9" height="0.9"/>
			<rect x="245.6" y="249.4" width="0.9" height="0.9"/>
			<rect x="247.4" y="249.4" width="0.9" height="0.9"/>
			<rect x="248.2" y="249.4" width="0.9" height="0.9"/>
			<rect x="249.1" y="249.4" width="0.9" height="0.9"/>
			<rect x="250.8" y="249.4" width="0.9" height="0.9"/>
			<rect x="254.2" y="249.4" width="0.9" height="0.9"/>
			<rect x="257.7" y="249.4" width="0.9" height="0.9"/>
			<rect x="258.5" y="249.4" width="0.9" height="0.9"/>
			<rect x="240.5" y="250.2" width="0.9" height="0.9"/>
			<rect x="243.1" y="250.2" width="0.9" height="0.9"/>
			<rect x="244.8" y="250.2" width="0.9" height="0.9"/>
			<rect x="246.5" y="250.2" width="0.9" height="0.9"/>
			<rect x="248.2" y="250.2" width="0.9" height="0.9"/>
			<rect x="249.1" y="250.2" width="0.9" height="0.9"/>
			<rect x="250.8" y="250.2" width="0.9" height="0.9"/>
			<rect x="252.5" y="250.2" width="0.9" height="0.9"/>
			<rect x="254.2" y="250.2" width="0.9" height="0.9"/>
			<rect x="255.1" y="250.2" width="0.9" height="0.9"/>
			<rect x="256" y="250.2" width="0.9" height="0.9"/>
			<rect x="256.8" y="250.2" width="0.9" height="0.9"/>
			<rect x="258.5" y="250.2" width="0.9" height="0.9"/>
			<rect x="259.4" y="250.2" width="0.9" height="0.9"/>
			<rect x="260.3" y="250.2" width="0.9" height="0.9"/>
			<rect x="241.4" y="251.1" width="0.9" height="0.9"/>
			<rect x="242.2" y="251.1" width="0.9" height="0.9"/>
			<rect x="243.9" y="251.1" width="0.9" height="0.9"/>
			<rect x="246.5" y="251.1" width="0.9" height="0.9"/>
			<rect x="247.4" y="251.1" width="0.9" height="0.9"/>
			<rect x="249.1" y="251.1" width="0.9" height="0.9"/>
			<rect x="250.8" y="251.1" width="0.9" height="0.9"/>
			<rect x="251.7" y="251.1" width="0.9" height="0.9"/>
			<rect x="252.5" y="251.1" width="0.9" height="0.9"/>
			<rect x="253.4" y="251.1" width="0.9" height="0.9"/>
			<rect x="254.2" y="251.1" width="0.9" height="0.9"/>
			<rect x="255.1" y="251.1" width="0.9" height="0.9"/>
			<rect x="256" y="251.1" width="0.9" height="0.9"/>
			<rect x="256.8" y="251.1" width="0.9" height="0.9"/>
			<rect x="260.3" y="251.1" width="0.9" height="0.9"/>
			<rect x="240.5" y="251.9" width="0.9" height="0.9"/>
			<rect x="242.2" y="251.9" width="0.9" height="0.9"/>
			<rect x="243.1" y="251.9" width="0.9" height="0.9"/>
			<rect x="243.9" y="251.9" width="0.9" height="0.9"/>
			<rect x="244.8" y="251.9" width="0.9" height="0.9"/>
			<rect x="245.6" y="251.9" width="0.9" height="0.9"/>
			<rect x="246.5" y="251.9" width="0.9" height="0.9"/>
			<rect x="248.2" y="251.9" width="0.9" height="0.9"/>
			<rect x="249.9" y="251.9" width="0.9" height="0.9"/>
			<rect x="251.7" y="251.9" width="0.9" height="0.9"/>
			<rect x="256.8" y="251.9" width="0.9" height="0.9"/>
			<rect x="258.5" y="251.9" width="0.9" height="0.9"/>
			<rect x="259.4" y="251.9" width="0.9" height="0.9"/>
			<rect x="239.6" y="252.8" width="0.9" height="0.9"/>
			<rect x="242.2" y="252.8" width="0.9" height="0.9"/>
			<rect x="243.9" y="252.8" width="0.9" height="0.9"/>
			<rect x="247.4" y="252.8" width="0.9" height="0.9"/>
			<rect x="249.9" y="252.8" width="0.9" height="0.9"/>
			<rect x="252.5" y="252.8" width="0.9" height="0.9"/>
			<rect x="253.4" y="252.8" width="0.9" height="0.9"/>
			<rect x="254.2" y="252.8" width="0.9" height="0.9"/>
			<rect x="256" y="252.8" width="0.9" height="0.9"/>
			<rect x="256.8" y="252.8" width="0.9" height="0.9"/>
			<rect x="260.3" y="252.8" width="0.9" height="0.9"/>
			<rect x="241.4" y="253.7" width="0.9" height="0.9"/>
			<rect x="244.8" y="253.7" width="0.9" height="0.9"/>
			<rect x="247.4" y="253.7" width="0.9" height="0.9"/>
			<rect x="249.1" y="253.7" width="0.9" height="0.9"/>
			<rect x="250.8" y="253.7" width="0.9" height="0.9"/>
			<rect x="253.4" y="253.7" width="0.9" height="0.9"/>
			<rect x="254.2" y="253.7" width="0.9" height="0.9"/>
			<rect x="255.1" y="253.7" width="0.9" height="0.9"/>
			<rect x="256" y="253.7" width="0.9" height="0.9"/>
			<rect x="256.8" y="253.7" width="0.9" height="0.9"/>
			<rect x="257.7" y="253.7" width="0.9" height="0.9"/>
			<rect x="258.5" y="253.7" width="0.9" height="0.9"/>
			<rect x="259.4" y="253.7" width="0.9" height="0.9"/>
			<rect x="260.3" y="253.7" width="0.9" height="0.9"/>
			<rect x="246.5" y="254.5" width="0.9" height="0.9"/>
			<rect x="247.4" y="254.5" width="0.9" height="0.9"/>
			<rect x="248.2" y="254.5" width="0.9" height="0.9"/>
			<rect x="249.9" y="254.5" width="0.9" height="0.9"/>
			<rect x="250.8" y="254.5" width="0.9" height="0.9"/>
			<rect x="253.4" y="254.5" width="0.9" height="0.9"/>
			<rect x="256.8" y="254.5" width="0.9" height="0.9"/>
			<rect x="258.5" y="254.5" width="0.9" height="0.9"/>
			<rect x="260.3" y="254.5" width="0.9" height="0.9"/>
			<rect x="246.5" y="255.4" width="0.9" height="0.9"/>
			<rect x="247.4" y="255.4" width="0.9" height="0.9"/>
			<rect x="248.2" y="255.4" width="0.9" height="0.9"/>
			<rect x="249.1" y="255.4" width="0.9" height="0.9"/>
			<rect x="249.9" y="255.4" width="0.9" height="0.9"/>
			<rect x="253.4" y="255.4" width="0.9" height="0.9"/>
			<rect x="255.1" y="255.4" width="0.9" height="0.9"/>
			<rect x="256.8" y="255.4" width="0.9" height="0.9"/>
			<rect x="258.5" y="255.4" width="0.9" height="0.9"/>
			<rect x="259.4" y="255.4" width="0.9" height="0.9"/>
			<rect x="260.3" y="255.4" width="0.9" height="0.9"/>
			<rect x="246.5" y="256.2" width="0.9" height="0.9"/>
			<rect x="248.2" y="256.2" width="0.9" height="0.9"/>
			<rect x="249.9" y="256.2" width="0.9" height="0.9"/>
			<rect x="252.5" y="256.2" width="0.9" height="0.9"/>
			<rect x="253.4" y="256.2" width="0.9" height="0.9"/>
			<rect x="256.8" y="256.2" width="0.9" height="0.9"/>
			<rect x="259.4" y="256.2" width="0.9" height="0.9"/>
			<rect x="247.4" y="257.1" width="0.9" height="0.9"/>
			<rect x="248.2" y="257.1" width="0.9" height="0.9"/>
			<rect x="249.1" y="257.1" width="0.9" height="0.9"/>
			<rect x="251.7" y="257.1" width="0.9" height="0.9"/>
			<rect x="253.4" y="257.1" width="0.9" height="0.9"/>
			<rect x="254.2" y="257.1" width="0.9" height="0.9"/>
			<rect x="255.1" y="257.1" width="0.9" height="0.9"/>
			<rect x="256" y="257.1" width="0.9" height="0.9"/>
			<rect x="256.8" y="257.1" width="0.9" height="0.9"/>
			<rect x="257.7" y="257.1" width="0.9" height="0.9"/>
			<rect x="260.3" y="257.1" width="0.9" height="0.9"/>
			<rect x="246.5" y="258" width="0.9" height="0.9"/>
			<rect x="248.2" y="258" width="0.9" height="0.9"/>
			<rect x="249.9" y="258" width="0.9" height="0.9"/>
			<rect x="251.7" y="258" width="0.9" height="0.9"/>
			<rect x="253.4" y="258" width="0.9" height="0.9"/>
			<rect x="254.2" y="258" width="0.9" height="0.9"/>
			<rect x="255.1" y="258" width="0.9" height="0.9"/>
			<rect x="256.8" y="258" width="0.9" height="0.9"/>
			<rect x="257.7" y="258" width="0.9" height="0.9"/>
			<rect x="258.5" y="258" width="0.9" height="0.9"/>
			<rect x="259.4" y="258" width="0.9" height="0.9"/>
			<rect x="260.3" y="258" width="0.9" height="0.9"/>
			<rect x="246.5" y="258.8" width="0.9" height="0.9"/>
			<rect x="247.4" y="258.8" width="0.9" height="0.9"/>
			<rect x="249.1" y="258.8" width="0.9" height="0.9"/>
			<rect x="251.7" y="258.8" width="0.9" height="0.9"/>
			<rect x="252.5" y="258.8" width="0.9" height="0.9"/>
			<rect x="254.2" y="258.8" width="0.9" height="0.9"/>
			<rect x="255.1" y="258.8" width="0.9" height="0.9"/>
			<rect x="256.8" y="258.8" width="0.9" height="0.9"/>
			<rect x="258.5" y="258.8" width="0.9" height="0.9"/>
			<rect x="259.4" y="258.8" width="0.9" height="0.9"/>
			<rect x="248.2" y="259.7" width="0.9" height="0.9"/>
			<rect x="250.8" y="259.7" width="0.9" height="0.9"/>
			<rect x="252.5" y="259.7" width="0.9" height="0.9"/>
			<rect x="255.1" y="259.7" width="0.9" height="0.9"/>
			<rect x="256.8" y="259.7" width="0.9" height="0.9"/>
			<rect x="258.5" y="259.7" width="0.9" height="0.9"/>
			<rect x="246.5" y="260.5" width="0.9" height="0.9"/>
			<rect x="247.4" y="260.5" width="0.9" height="0.9"/>
			<rect x="248.2" y="260.5" width="0.9" height="0.9"/>
			<rect x="250.8" y="260.5" width="0.9" height="0.9"/>
			<rect x="251.7" y="260.5" width="0.9" height="0.9"/>
			<rect x="255.1" y="260.5" width="0.9" height="0.9"/>
			<rect x="256" y="260.5" width="0.9" height="0.9"/>
			<rect x="256.8" y="260.5" width="0.9" height="0.9"/>
			<rect x="257.7" y="260.5" width="0.9" height="0.9"/>
			<rect x="258.5" y="260.5" width="0.9" height="0.9"/>
			<rect x="259.4" y="260.5" width="0.9" height="0.9"/>
			<rect x="260.3" y="260.5" width="0.9" height="0.9"/>
			<rect x="240.5" y="240.8" class="st0" width="4.2" height="4.2"/>
			<path d="M244.8,239.9h-5.1v6h6v-6H244.8z M244.8,245h-4.2v-4.2h4.2V245z"/>
			<rect x="256" y="240.8" class="st0" width="4.2" height="4.2"/>
			<path d="M260.2,239.9h-5.1v6h6v-6H260.2z M260.2,245H256v-4.2h4.2L260.2,245z"/>
			<rect x="240.5" y="256.3" class="st0" width="4.2" height="4.2"/>
			<path d="M244.8,255.4h-5.1v6h6v-6H244.8z M244.8,260.5h-4.2v-4.2h4.2V260.5z"/>
			<rect x="241.4" y="241.6" width="2.6" height="2.6"/>
			<rect x="256.8" y="241.6" width="2.6" height="2.6"/>
			<rect x="241.4" y="257.1" width="2.6" height="2.6"/>
			<rect x="0.5" y="0.5" class="st42" width="301.1" height="322.4"/>
		</g>
	</g>
</g>
</svg>
